<svg xmlns="http://www.w3.org/2000/svg" width="516" height="455.333" viewBox="705.333 316 516 455.333" enable-background="new 705.333 316 516 455.333"><g fill="#fff"><path d="M1003.659 604.282h-17.215v15.166h17.215c3.189 0 4.394-.223 5.046-.877 1-1.097 1.223-2.746 1.223-6.697 0-3.96-.223-5.609-1.223-6.714-.649-.694-1.794-.98-4.937-.877h-.109zM927.526 529.154c.991-1.097 1.217-2.746 1.217-6.706 0-3.963-.226-5.612-1.217-6.697-.657-.663-1.863-.88-5.052-.88h-17.218v15.16h17.218c3.189-.14 4.434-.14 5.006-.877h.046zM1002.953 515.525h-11.083c-3.303 0-4.394.226-5.057.889-.766.769-1.323 3.18-1.323 20.001 0 16.858.571 19.143 1.429 20.015.663.571 1.714.857 5.143.88h11.083c3.292 0 4.383-.217 5.052-.88.769-.771 1.323-3.183 1.323-20.015 0-16.8-.554-19.212-1.323-19.981-.857-.543-1.857-.829-5.286-.909h.042zM911.194 607.036l-5.429 17.715h16.572l-5.715-17.715zM1000.062 462.615c4.789 0 15.866-11.837 15.866-14.44 0-.671-.417-.92-1.011-.92-.586 0-1.343.343-1.76.571-5.617 3.86-11.246 8.983-15.1 13.678.66.957 1.711 1.243 1.997 1.111h.008zM1088.936 604.508h-18.126l.211 42.633h17.915c4.946 0 6.82-.329 7.912-1.423 1.217-1.214 1.643-4.503 1.643-19.889 0-15.495-.426-18.683-1.643-19.906-1.092-1.171-3.077-1.457-7.935-1.414h.023zM1202.733 456.178l-227.446-128.55c-6.232-3.717-16.423-3.717-22.655 0l-227.444 128.55c-6.232 3.726-11.329 12.706-11.329 19.972v187.865c0 7.143 5.714 14.858 12.572 16.983l224.818 81.925c6.954 2 18.286 2 25.144 0l224.818-81.925c6.954-2.083 12.643-9.717 12.643-16.983v-187.865c.206-7.403-4.937-16.26-11.223-19.972h.102zm-303.377-43.147c8.66-3.74 21.689-2.183 38.304-2.183 39.101 0 77.214-2.369 78.896-2.369 1.083 0 1.343-.989 8.857 5.143 1.086.857 4 2.572 4 4.034 0 1.006-3.52 1.766-5.709 2.009-6.137.717-13.855 1.371-21.498 2-5.82 1.623-10.232 5.14-13.783 8.503-11.426 10.84-19.389 16.483-21.512 19.186 5.454-2.686 8.637-4.697 13.009-4.697 2.603 0 7.429 2.572 7.429 6.132 0 1.006-.34 1.426-1.763 2.68-4.029 3.449-16.869 13.512-16.869 17.715 0 .857.571 1.143 1.143 1.171 1.669 0 6.877-3.449 11.743-7.214 2.82-2.177 5.743-6.323 6.6-7.617 2.403-3.609 5.694-6.94 9.117-10.015 6.712-6.04 11.826-8.72 15.023-8.72 1.763 0 4 1.714 6.286 4 3.014 2.857 3.143 4.286 3.143 5.283 0 8.06-13.843 19.478-20.138 19.478-1.763 0-4.286-1.006-6.132-2.937-1.589 2.426-2.517 4.529-2.517 6.034 0 1.429.571 3.143 3.143 3.114 1.509 0 3.349-.511 4.366-.837 15.358-5.634 23.406-13.1 24.169-13.1.666 0 .857.571.857.837 0 .92-3.349 4.789-6.792 8-6.132 5.614-14.432 11.5-22.664 11.5-3.58 0-11.135-8.103-11.586-11.652-5.094 4.709-13.615 10.889-17.56 10.857-4.774 0-7.214-5.886-7.214-10.06 0-5.292 6.472-11.5 12.169-17.126-6.537 2.772-13.929 9.066-25.598 23.429-.663.746-2.097 4.1-3.02 4.1-1.591 0-7.137-4.452-7.137-7.549 0-.429.254-1.171.76-1.926 10.446-15.269 32.315-35.467 45.69-47.478-3.394.143-6.389.226-8.532.226-2.603 0-10.237 6.212-15.952 11.715-6.714 6.537-23.664 23.078-34.661 37.347-6.543 8.469-5.7 11.152-6.96 11.152-3.36 0-9.155-9.986-9.155-11.912 0-5.292 15.189-19.889 22.835-27.289 12.838-12.415 20.223-18.875 21.729-20.049.677-.503 2.02-1.431 2.02-1.431-17.775-3.114-36.601-8.543-47.896-5.414-14.218 3.934-21.681 34.495-1.1 27.112 8.692-3.117 16.626-9.895 21.381-15.795 1.846-2.294 3.026-1.154 1.143 1.966-6.394 10.003-16.226 19.521-35.261 20.178-18.072.471-14.683-28.101 7.317-37.461l-.12-.07zm133.704 123.363c0 21.221-2.526 29.901-7.037 34.295-2.957 2.971-6.26 4.177-14.28 4.177h-28.664c-8.02 0-11.318-1.206-14.286-4.177-4.509-4.394-7.029-13.075-7.029-34.295 0-21.203 2.52-29.875 7.029-34.27 2.969-2.972 6.266-4.177 14.286-4.177h28.664c8.02 0 11.429 1.143 14.286 4.177 4.506 4.337 7.169 13.195 7.169 34.27h-.138zm-158.456 21.329h8.126v-42.633h-8.126v-17.143h59.525c6.586 0 10.857 1.143 13.715 4.052 3.409 3.429 4.572 7.715 4.572 17.26 0 13.635-3.62 16.926-12.523 18.683l11.649 19.781h7.36v17.143h-23.755l-16.972-29.004h-12.917v11.86h8.352v17.143h-39.004v-17.142zm-72.893 0h20.726v-42.633h-20.726v-17.143h66.708v17.143h-20.712v42.633h20.709v17.143h-66.705v-17.143zm61.153 106.561h-39.893v-17.144h8.68v-11.969l-22.309-30.664h-7.626v-17.143h39.933v16.918h-6.695l8.455 13.192h.437l9.129-13.192h-6.717v-16.918h38.478v17.143h-7.806l-22.755 30.327v12.306h8.689v17.144zm251.361-6.052c-4.614 4.62-10.557 6.052-21.649 6.052h-76.188l-17.029-29.007h-12.912v11.863h8.352v17.143h-73.531v-16.809h7.032l-1.869-6.6h-24.944l-1.763 6.6h7.034v16.809h-38.341v-17.143h8.783l20.381-60.11h34.595l20.301 60.11h11.437000000000001v-42.633h-8.126v-17.143h59.525c6.58 0 10.857 1.143 13.715 4 3.406 3.429 4.572 7.714 4.572 17.252 0 13.62-3.62 16.926-12.526 18.683l11.649 19.772h15.498000000000001v-42.633h-8.132v-17.143h52.43c11.092 0 17.143 1.429 21.715 6.034 5.266 5.143 8 13.143 8 32.429.009 19.278-2.749 27.278-7.892 32.472h-.117zm11.983-143.141h-7.923v59.776h-25.309l-27.092-43.838v26.695h8.123l.106 17.143h-36.695v-17.143h8.135v-42.633h-8.135v-17.143h34.978l25.564 39.43v-22.201h-7.574v-17.143h35.827v17.058h-.005z"/></g></svg>